<svg width="390" height="307" viewBox="0 0 390 307" fill="none" xmlns="http://www.w3.org/2000/svg">
<path d="M403.5 288.001C401.626 291.749 380.322 292.043 343.243 288.508C312 285.53 291.712 277.862 275.196 271.261C257.179 264.06 246.229 252.338 241.743 238.901C236.01 221.729 235.795 200.807 236.498 179.102C236.868 167.687 238.606 155.523 242.844 138.24C247.081 120.956 254.108 98.9387 261.71 81.9748C274.884 52.575 291.102 36.5627 302.664 26.4057C313.442 16.9376 323.312 14.7439 328.266 16.6106C336.918 19.8705 336.585 35.498 335.648 48.9414C334.533 64.9365 326.222 82.3155 315.142 101.657C309.056 112.281 300.783 123.81 291.294 136.167C281.804 148.524 271.029 161.173 257.983 173.076C244.937 184.979 229.947 195.754 214.495 205.052C199.043 214.35 183.584 221.845 158.287 229.22C132.99 236.595 98.324 243.622 58.4482 247.241C18.5724 250.861 -25.4628 250.861 -52.1294 250.393C-86.783 249.784 -99.6496 246.148 -107.216 241.904C-110.098 239.533 -111.035 236.722 -111.517 233.635C-112 230.547 -112 227.268 -112 223.89" stroke="#EED3FF" stroke-opacity="0.6" stroke-width="32" stroke-linecap="round"/>
</svg>
