<svg width="393" height="306" viewBox="0 0 393 306" fill="none" xmlns="http://www.w3.org/2000/svg">
<path d="M408.305 287.27C406.431 291.018 385.322 291.543 348.243 288.008C317.925 285.118 296.712 277.361 280.196 270.76C262.179 263.56 251.229 251.837 246.743 238.401C241.01 221.229 240.795 200.307 241.498 178.602C241.868 167.187 243.606 155.023 247.844 137.739C252.081 120.456 259.108 98.4385 266.71 81.4746C279.884 52.0748 296.102 36.0625 307.664 25.9054C318.442 16.4374 328.312 14.2436 333.266 16.1104C341.918 19.3703 341.585 34.9978 340.648 48.4411C339.533 64.4363 331.222 81.8153 320.142 101.157C314.056 111.781 305.783 123.309 296.294 135.667C286.804 148.024 276.029 160.673 262.983 172.576C249.937 184.479 234.947 195.253 219.495 204.552C204.043 213.85 188.584 221.345 163.287 228.72C137.99 236.094 103.324 243.121 63.4482 246.741C23.5724 250.361 -20.4628 250.361 -47.1294 249.893C-81.783 249.284 -94.6496 245.648 -102.216 241.404C-105.098 239.033 -106.035 236.222 -106.517 233.135C-107 230.047 -107 226.768 -107 223.389" stroke="#EED3FF" stroke-opacity="0.6" stroke-width="31" stroke-linecap="round"/>
</svg>
