<svg width="390" height="197" viewBox="0 0 390 197" fill="none" xmlns="http://www.w3.org/2000/svg">
<path d="M-112 17.0045C-93.5574 22.7049 -75.1148 28.4054 -49.0157 41.5692C-22.9167 54.7331 10.28 75.1876 33.5847 92.2635C56.8895 109.339 69.2963 122.417 79.3763 137.369C89.4562 152.321 96.8332 168.752 101.304 185.432C105.775 202.111 107.116 218.542 105.963 229.186C104.81 239.83 101.121 244.189 97.2092 247.608C89.823 254.064 78.7564 256.128 67.5943 256.133C62.7919 256.135 59.7855 254.797 59.4044 251.261C59.0234 247.725 61.3706 241.689 67.7772 236.4C74.1839 231.111 84.5788 226.752 105.861 221.824C127.144 216.896 158.999 211.531 220.678 210.946C282.357 210.362 372.893 214.721 466.173 220.229" stroke="#EED3FF" stroke-opacity="0.6" stroke-width="34" stroke-linecap="round"/>
</svg>
