<svg width="393" height="200" viewBox="0 0 393 200" fill="none" xmlns="http://www.w3.org/2000/svg">
<path d="M-71 14.0034C-63.9598 29.4037 -57.033 45.0374 -48.5129 62.6444C-43.6352 72.7242 -36.2526 84.4315 -29.4358 94.6217C-22.619 104.812 -16.2389 112.952 -11.9622 118.135C-5.90904 125.472 0.294738 130.199 8.05487 135.412C20.5884 143.833 34.0421 143.339 46.799 143.119C52.5191 143.021 56.6958 142.459 78.0996 137.722C99.5033 132.986 138.004 123.966 167.408 119.099C196.812 114.232 215.952 113.792 227.902 113.785C239.853 113.779 244.033 114.219 252.896 116.315C261.76 118.412 275.18 122.152 284.624 125.509C299.492 130.794 306.761 136.432 311.967 139.979C317.633 143.839 326.508 149.519 341.441 159.703C350.68 166.003 364.075 173.406 373.955 178.143C383.835 182.88 389.996 184.42 404.059 185.213C418.123 186.007 439.903 186.007 452.113 185.897C466.304 185.567 469.664 184.9 472.214 184.123C473.444 183.787 474.544 183.567 476.344 182.007" stroke="#EED3FF" stroke-opacity="0.6" stroke-width="28" stroke-linecap="round"/>
</svg>
