<svg width="388" height="638" viewBox="0 0 388 638" fill="none" xmlns="http://www.w3.org/2000/svg">
<path d="M14.0899 694.164C13.4216 694.164 15.4164 692.493 34.6653 675.593C51.7663 660.579 82.9849 631.628 123.726 577.896C164.466 524.164 213.586 446.308 250.919 365.935C288.252 285.563 343.589 218.263 356.484 161.24C369.379 104.218 373.964 70.2266 364.984 46.7402C358.484 29.7402 354.984 26.7402 338.962 16.3011C336.49 14.6908 337.984 15.2404 333.767 14.5443C303.205 9.49948 299.22 40.5661 295.484 60.7403C292.984 74.2405 291.29 93.6714 288.546 114.171C285.802 134.67 285.134 156.39 288.131 181.78C291.128 207.17 297.811 235.572 304.428 257.388C311.045 279.204 317.394 293.572 324.006 306.488C330.618 319.403 337.301 330.43 350.1 347.805C362.899 365.181 381.611 388.571 393.757 402.96C405.903 417.348 410.915 422.026 419.01 428.279C427.106 434.532 438.133 442.217 450.506 450.135" stroke="#EED3FF" stroke-opacity="0.6" stroke-width="28" stroke-linecap="round"/>
</svg>
