<svg width="390" height="423" viewBox="0 0 390 423" fill="none" xmlns="http://www.w3.org/2000/svg">
<path d="M-33 334.489C-16.0575 358.955 0.828529 379.631 37.033 397.606C77.8116 417.852 123.386 395.839 146.438 382.672C167.413 370.692 186.574 353.44 211.931 323.43C252.497 275.421 272.418 218.72 282.77 175.02C294.938 123.655 306.5 85.2139 303 59.7139C299.5 34.2139 286 17.2134 266 17.2137C262.268 17.2137 251 15.2134 240 22.7137C210.95 42.521 234.967 96.6708 247.5 122.213C260.033 147.756 330.301 224.212 358.191 243.922C377 257.213 399.642 267.511 422.68 273.168C434.517 275.091 446.652 275.091 459.153 275.091" stroke="#EED3FF" stroke-opacity="0.6" stroke-width="34" stroke-linecap="round"/>
</svg>
