<svg width="390" height="305" viewBox="0 0 390 305" fill="none" xmlns="http://www.w3.org/2000/svg">
<path d="M-31 285.77C-29.1261 289.518 -8.07921 292.036 29 288.501C60.4703 285.501 82.5 278.001 97.1093 269.26C113.759 259.299 126.076 250.337 130.562 236.901C136.295 219.729 136.51 198.807 135.807 177.102C135.437 165.687 133.699 153.523 129.461 136.239C125.224 118.956 118.197 96.9385 110.595 79.9746C97.4207 50.5748 81.203 34.5625 69.6406 24.4054C58.8625 14.9374 48.993 12.7436 44.0387 14.6104C35.3869 17.8703 35.72 33.4978 36.6569 46.9411C37.7716 62.9363 46.0828 80.3153 57.1625 99.6569C63.2485 110.281 71.5215 121.809 81.0114 134.167C90.5012 146.524 101.276 159.173 114.322 171.076C127.368 182.979 142.358 193.753 157.81 203.052C173.262 212.35 188.696 220.609 213.5 229.501C240 239.001 276.124 253.381 316 257.001C355.876 260.621 397 255.501 423.5 257.001C458.104 258.96 471.955 244.148 479.521 239.904C482.403 237.533 483.34 234.722 483.822 231.635C484.305 228.547 484.305 225.268 484.305 221.889" stroke="#EED3FF" stroke-opacity="0.6" stroke-width="28" stroke-linecap="round"/>
</svg>
