<svg width="393" height="367" viewBox="0 0 393 367" fill="none" xmlns="http://www.w3.org/2000/svg">
<path d="M-16 351C-16 351.345 -8.67067 347.086 -0.496735 348.329C10.5 350 29.5131 352.128 54.4794 341.644C79.4458 331.16 108.766 307.704 130.769 285.962C152.772 264.221 166.569 244.904 177.816 225.985C189.064 207.065 197.342 189.128 202.987 172.644C208.631 156.161 211.391 141.673 212.64 123.172C213.889 104.67 213.544 82.5942 211.986 66.5649C208.16 27.1867 196.5 22.1779 188.5 18.3465C184.059 16.2197 179 13.1778 166.585 18.3465C153.075 23.9709 143.197 36.1004 135.718 47.912C128.019 60.0713 127.131 76.1448 127.988 93.6845C128.461 103.354 131.95 114.329 138.546 128.466C145.141 142.603 155.489 159.505 166.857 173.559C178.224 187.613 190.297 198.306 204.45 206.747C218.603 215.187 234.47 221.051 253.682 224.244C272.894 227.438 294.971 227.783 333.076 221.234C371.182 214.685 424.647 201.233 453.915 193.613C483.183 185.993 486.632 184.613 493.322 182.146" stroke="#EED3FF" stroke-opacity="0.6" stroke-width="31" stroke-linecap="round"/>
</svg>
