<svg width="393" height="685" viewBox="0 0 393 685" fill="none" xmlns="http://www.w3.org/2000/svg">
<path d="M-7 16.5037C4.96575 67.732 16.9315 118.96 27.7698 163.486C38.6081 208.012 47.9563 244.283 62.6812 282.787C77.406 321.29 97.2243 360.926 111.921 387.515C126.617 414.104 135.592 426.443 143.58 435.605C151.569 444.766 158.299 450.375 167.563 454.386C176.826 458.397 188.418 460.641 200.933 456.188C213.448 451.735 226.536 440.517 239.074 418.098C251.612 395.679 263.203 362.399 268.801 334.411C274.399 306.423 273.651 284.735 269.339 267.58C265.028 250.425 257.175 238.459 248.269 229.49C231.601 212.706 210.5 204.8 190.491 204.8C181.55 204.8 174.072 207.57 167.976 214.341C161.88 221.111 157.393 231.955 156.951 262.033C156.509 292.112 160.248 341.097 170.401 381.289C180.554 421.48 197.007 451.395 216.7 480.453C236.394 509.512 258.83 536.809 289.832 566.95C320.834 597.091 359.722 629.249 384.43 646.937C409.138 664.625 418.486 666.868 422.554 667.837C426.622 668.806 425.126 668.432 422.452 666.914" stroke="#EED3FF" stroke-opacity="0.6" stroke-width="33" stroke-linecap="round"/>
</svg>
