<svg width="390" height="134" viewBox="0 0 390 134" fill="none" xmlns="http://www.w3.org/2000/svg">
<path d="M-111 133.705C-60.6521 148.956 -10.3042 164.208 33.6755 177.084C77.6552 189.961 113.741 200.001 154.448 206.5C195.156 213 239.391 215.655 269.766 216.222C300.14 216.789 315.314 215.186 327.242 212.849C339.17 210.511 347.393 207.487 355.499 201.47C363.604 195.453 371.343 186.536 373.744 173.471C376.145 160.406 372.974 143.463 359.828 121.396C346.681 99.328 323.656 72.6494 302.217 53.8077C280.777 34.966 261.621 24.7697 244.608 19.9259C227.595 15.0821 213.307 15.8997 201.086 19.1284C178.217 25.1709 159.5 34.5244 150.815 56.8201C147.569 65.1519 146 71.0244 147.82 81.0892C149.64 91.1539 154.672 103.602 180.5 119.024C206.328 134.446 253.73 151.16 293.614 162.463C333.497 173.766 367.63 174.475 402.642 171.949C437.655 169.424 472.513 163.642 514.116 151.864C555.72 140.086 603.014 122.486 630.686 109.933C658.358 97.3792 664.975 90.4052 667.848 87.3667C670.721 84.3282 669.65 85.4365 666.998 86.9933" stroke="#EED3FF" stroke-opacity="0.6" stroke-width="33" stroke-linecap="round"/>
</svg>
