<svg width="393" height="560" viewBox="0 0 393 560" fill="none" xmlns="http://www.w3.org/2000/svg">
<path d="M-71 543.681C16.6549 479.534 104.31 415.386 166.399 331.342C228.488 247.297 262.354 145.298 277.809 89.7654C293.263 34.2325 289.279 28.2561 285.433 23.7828C278.659 15.9034 271 15.5001 261 15.5C238.658 15.4998 216.426 27.6524 201.177 47.6947C192.381 59.2554 184.334 75.7056 178.424 96.2671C172.514 116.829 169.725 141.531 170.679 166.808C171.633 192.084 176.414 217.185 185.252 241.272C194.09 265.359 206.839 287.671 225.36 312.911C243.881 338.151 267.787 365.643 317.555 402.715C367.323 439.787 442.228 485.607 523.025 534.022" stroke="#EED3FF" stroke-opacity="0.6" stroke-width="31" stroke-linecap="round"/>
</svg>
