<svg width="15" height="16" viewBox="0 0 15 16" fill="none" xmlns="http://www.w3.org/2000/svg">
<path d="M14.8541 6.4109H14.25V6.37781H7.5V9.56672H11.7386C11.1203 11.4231 9.45862 12.7556 7.5 12.7556C5.01487 12.7556 3 10.6139 3 7.97227C3 5.33066 5.01487 3.18891 7.5 3.18891C8.64713 3.18891 9.69075 3.64891 10.4854 4.40029L12.6067 2.14534C11.2672 0.818353 9.4755 0 7.5 0C3.35813 0 0 3.56958 0 7.97227C0 12.375 3.35813 15.9445 7.5 15.9445C11.6419 15.9445 15 12.375 15 7.97227C15 7.43773 14.9482 6.91594 14.8541 6.4109Z" fill="#FFC107"/>
<path d="M7.5 15.9445C9.43725 15.9445 11.1975 15.1564 12.5284 13.8749L10.2071 11.787C9.42882 12.4161 8.47779 12.7564 7.5 12.7556C5.54925 12.7556 3.89287 11.4334 3.26887 9.58822L0.82312 11.5912C2.06437 14.1731 4.58512 15.9445 7.5 15.9445Z" fill="#4CAF50"/>
<path d="M14.8541 6.41094H14.25V6.37785H7.5V9.56676H11.7386C11.4428 10.4503 10.91 11.2223 10.206 11.7874L10.2071 11.7866L12.5284 13.8746C12.3641 14.0332 15 11.9584 15 7.97231C15 7.43777 14.9482 6.91598 14.8541 6.41094Z" fill="#1976D2"/>
<path d="M0.864746 4.26158L3.32887 6.18249C3.99562 4.4278 5.61037 3.18891 7.5 3.18891C8.64712 3.18891 9.69075 3.64891 10.4854 4.40029L12.6067 2.14534C11.2672 0.818353 9.4755 0 7.5 0C4.61925 0 2.121 1.72879 0.864746 4.26158Z" fill="#FF3D00"/>
</svg>
