<svg width="31" height="31" viewBox="0 0 31 31" fill="none" xmlns="http://www.w3.org/2000/svg">
<path d="M15.5 2.90625C12.1599 2.90625 8.95666 4.23309 6.59487 6.59487C4.23309 8.95666 2.90625 12.1599 2.90625 15.5C2.90625 17.5124 3.379 19.4176 4.22117 21.1084C4.3555 21.3797 4.36842 21.784 4.21471 22.413C4.13331 22.7307 4.03851 23.0449 3.93054 23.3546L3.89179 23.4657C3.79621 23.7499 3.69288 24.0599 3.61537 24.3479C3.12196 26.1911 4.80888 27.878 6.65079 27.3846C6.94012 27.3071 7.24883 27.2038 7.53429 27.1082L7.64538 27.0695C7.9551 26.9615 8.26926 26.8667 8.587 26.7853C9.21604 26.6303 9.62033 26.6432 9.89158 26.7788C11.6336 27.6468 13.5538 28.097 15.5 28.0938C22.4556 28.0938 28.0938 22.4556 28.0938 15.5C28.0938 8.54437 22.4556 2.90625 15.5 2.90625Z" fill="#1E1E1E"/>
</svg>
