<svg width="31" height="31" viewBox="0 0 31 31" fill="none" xmlns="http://www.w3.org/2000/svg">
<path fill-rule="evenodd" clip-rule="evenodd" d="M30.4463 10.9408C30.3954 7.43776 28.4092 3.9879 25.3601 2.56633C23.7213 1.80047 21.8517 1.69035 20.1344 2.25854C18.5733 2.75454 17.0078 3.7709 15.4999 5.36961C13.992 3.7709 12.4265 2.75676 10.8654 2.25854C9.14806 1.69035 7.27844 1.80047 5.63968 2.56633C2.59061 3.9879 0.604395 7.43776 0.553467 10.9408V10.9585C0.553467 16.0668 3.59147 20.5928 6.81104 23.7703C8.27265 25.2223 9.89428 26.5037 11.6448 27.59C12.3933 28.0461 13.0996 28.4115 13.7263 28.6683C14.3241 28.9119 14.9508 29.0979 15.4999 29.0979C16.049 29.0979 16.6735 28.9119 17.2713 28.6683C17.9002 28.4137 18.6065 28.0483 19.3528 27.5922C21.1042 26.5053 22.7266 25.2232 24.1888 23.7703C27.4083 20.5928 30.4463 16.0668 30.4463 10.9607V10.9408Z" fill="#1E1E1E"/>
</svg>
