<svg width="22" height="22" viewBox="0 0 22 22" fill="none" xmlns="http://www.w3.org/2000/svg">
<path fill-rule="evenodd" clip-rule="evenodd" d="M7.33325 9.16667V6.41667C7.33325 5.44421 7.71956 4.51157 8.40719 3.82394C9.09483 3.13631 10.0275 2.75 10.9999 2.75C11.9724 2.75 12.905 3.13631 13.5926 3.82394C14.2803 4.51157 14.6666 5.44421 14.6666 6.41667V9.16667H15.5833C16.0695 9.16667 16.5358 9.35982 16.8796 9.70364C17.2234 10.0475 17.4166 10.5138 17.4166 11V17.4167C17.4166 17.9029 17.2234 18.3692 16.8796 18.713C16.5358 19.0568 16.0695 19.25 15.5833 19.25H6.41659C5.93035 19.25 5.46404 19.0568 5.12022 18.713C4.77641 18.3692 4.58325 17.9029 4.58325 17.4167V11C4.58325 10.5138 4.77641 10.0475 5.12022 9.70364C5.46404 9.35982 5.93035 9.16667 6.41659 9.16667H7.33325ZM9.16658 6.41667C9.16658 5.93044 9.35974 5.46412 9.70356 5.1203C10.0474 4.77649 10.5137 4.58333 10.9999 4.58333C11.4861 4.58333 11.9525 4.77649 12.2963 5.1203C12.6401 5.46412 12.8333 5.93044 12.8333 6.41667V9.16667H9.16658V6.41667ZM10.9999 11.9167C11.243 11.9167 11.4762 12.0132 11.6481 12.1852C11.82 12.3571 11.9166 12.5902 11.9166 12.8333V15.5833C11.9166 15.8264 11.82 16.0596 11.6481 16.2315C11.4762 16.4034 11.243 16.5 10.9999 16.5C10.7568 16.5 10.5236 16.4034 10.3517 16.2315C10.1798 16.0596 10.0833 15.8264 10.0833 15.5833V12.8333C10.0833 12.5902 10.1798 12.3571 10.3517 12.1852C10.5236 12.0132 10.7568 11.9167 10.9999 11.9167Z" fill="black"/>
</svg>
